solid OpenSCAD_Model
  facet normal -1 0 0
    outer loop
      vertex -25 -25 -25
      vertex -25 -25 25
      vertex -25 25 -25
    endloop
  endfacet
  facet normal -1 0 0
    outer loop
      vertex -25 25 -25
      vertex -25 -25 25
      vertex -25 25 25
    endloop
  endfacet
  facet normal 0 -1 0
    outer loop
      vertex -25 -25 25
      vertex -25 -25 -25
      vertex 25 -25 -25
    endloop
  endfacet
  facet normal 0 -1 0
    outer loop
      vertex 25 -25 25
      vertex -25 -25 25
      vertex 25 -25 -25
    endloop
  endfacet
  facet normal 0 0 -1
    outer loop
      vertex 2.09057 19.8904 -25
      vertex -25 25 -25
      vertex 25 25 -25
    endloop
  endfacet
  facet normal 0 0 -1
    outer loop
      vertex -25 -25 -25
      vertex -25 25 -25
      vertex -20 0 -25
    endloop
  endfacet
  facet normal 0 0 -1
    outer loop
      vertex -25 -25 -25
      vertex -20 0 -25
      vertex -19.563 -4.15823 -25
    endloop
  endfacet
  facet normal 0 0 -1
    outer loop
      vertex -25 -25 -25
      vertex -19.563 -4.15823 -25
      vertex -18.2709 -8.13473 -25
    endloop
  endfacet
  facet normal 0 0 -1
    outer loop
      vertex -25 -25 -25
      vertex -18.2709 -8.13473 -25
      vertex -16.1803 -11.7557 -25
    endloop
  endfacet
  facet normal 0 0 -1
    outer loop
      vertex -25 -25 -25
      vertex -16.1803 -11.7557 -25
      vertex -13.3826 -14.8629 -25
    endloop
  endfacet
  facet normal 0 0 -1
    outer loop
      vertex -25 -25 -25
      vertex -13.3826 -14.8629 -25
      vertex -10 -17.3205 -25
    endloop
  endfacet
  facet normal 0 0 -1
    outer loop
      vertex -25 -25 -25
      vertex -10 -17.3205 -25
      vertex -6.18034 -19.0211 -25
    endloop
  endfacet
  facet normal 0 0 -1
    outer loop
      vertex -25 -25 -25
      vertex -6.18034 -19.0211 -25
      vertex -2.09057 -19.8904 -25
    endloop
  endfacet
  facet normal 0 0 -1
    outer loop
      vertex -25 -25 -25
      vertex -2.09057 -19.8904 -25
      vertex 25 -25 -25
    endloop
  endfacet
  facet normal 0 0 -1
    outer loop
      vertex 6.18034 -19.0211 -25
      vertex 25 -25 -25
      vertex 2.09057 -19.8904 -25
    endloop
  endfacet
  facet normal 0 0 -1
    outer loop
      vertex 10 -17.3205 -25
      vertex 25 -25 -25
      vertex 6.18034 -19.0211 -25
    endloop
  endfacet
  facet normal 0 0 -1
    outer loop
      vertex 13.3826 -14.8629 -25
      vertex 25 -25 -25
      vertex 10 -17.3205 -25
    endloop
  endfacet
  facet normal 0 0 -1
    outer loop
      vertex 16.1803 -11.7557 -25
      vertex 25 -25 -25
      vertex 13.3826 -14.8629 -25
    endloop
  endfacet
  facet normal 0 0 -1
    outer loop
      vertex 19.563 4.15823 -25
      vertex 25 25 -25
      vertex 20 0 -25
    endloop
  endfacet
  facet normal 0 0 -1
    outer loop
      vertex 25 -25 -25
      vertex 16.1803 -11.7557 -25
      vertex 18.2709 -8.13473 -25
    endloop
  endfacet
  facet normal 0 0 -1
    outer loop
      vertex 25 -25 -25
      vertex 18.2709 -8.13473 -25
      vertex 19.563 -4.15823 -25
    endloop
  endfacet
  facet normal 0 0 -1
    outer loop
      vertex 25 -25 -25
      vertex 19.563 -4.15823 -25
      vertex 25 25 -25
    endloop
  endfacet
  facet normal 0 0 -1
    outer loop
      vertex 19.563 -4.15823 -25
      vertex 20 0 -25
      vertex 25 25 -25
    endloop
  endfacet
  facet normal 0 0 -1
    outer loop
      vertex -16.1803 11.7557 -25
      vertex -25 25 -25
      vertex -13.3826 14.8629 -25
    endloop
  endfacet
  facet normal 0 0 -1
    outer loop
      vertex -2.09057 19.8904 -25
      vertex -25 25 -25
      vertex 2.09057 19.8904 -25
    endloop
  endfacet
  facet normal 0 0 -1
    outer loop
      vertex 19.563 4.15823 -25
      vertex 18.2709 8.13473 -25
      vertex 25 25 -25
    endloop
  endfacet
  facet normal 0 0 -1
    outer loop
      vertex 18.2709 8.13473 -25
      vertex 16.1803 11.7557 -25
      vertex 25 25 -25
    endloop
  endfacet
  facet normal 0 0 -1
    outer loop
      vertex -10 17.3205 -25
      vertex -25 25 -25
      vertex -6.18034 19.0211 -25
    endloop
  endfacet
  facet normal 0 0 -1
    outer loop
      vertex 16.1803 11.7557 -25
      vertex 13.3826 14.8629 -25
      vertex 25 25 -25
    endloop
  endfacet
  facet normal 0 0 -1
    outer loop
      vertex -6.18034 19.0211 -25
      vertex -25 25 -25
      vertex -2.09057 19.8904 -25
    endloop
  endfacet
  facet normal 0 0 -1
    outer loop
      vertex 13.3826 14.8629 -25
      vertex 10 17.3205 -25
      vertex 25 25 -25
    endloop
  endfacet
  facet normal 0 0 -1
    outer loop
      vertex 10 17.3205 -25
      vertex 6.18034 19.0211 -25
      vertex 25 25 -25
    endloop
  endfacet
  facet normal 0 0 -1
    outer loop
      vertex 6.18034 19.0211 -25
      vertex 2.09057 19.8904 -25
      vertex 25 25 -25
    endloop
  endfacet
  facet normal 0 0 -1
    outer loop
      vertex -13.3826 14.8629 -25
      vertex -25 25 -25
      vertex -10 17.3205 -25
    endloop
  endfacet
  facet normal 0 0 -1
    outer loop
      vertex -18.2709 8.13473 -25
      vertex -25 25 -25
      vertex -16.1803 11.7557 -25
    endloop
  endfacet
  facet normal 0 0 -1
    outer loop
      vertex -19.563 4.15823 -25
      vertex -25 25 -25
      vertex -18.2709 8.13473 -25
    endloop
  endfacet
  facet normal 0 0 -1
    outer loop
      vertex -20 0 -25
      vertex -25 25 -25
      vertex -19.563 4.15823 -25
    endloop
  endfacet
  facet normal 0 0 -1
    outer loop
      vertex 2.09057 -19.8904 -25
      vertex 25 -25 -25
      vertex -2.09057 -19.8904 -25
    endloop
  endfacet
  facet normal 0 1 0
    outer loop
      vertex -25 25 -25
      vertex -25 25 25
      vertex 25 25 -25
    endloop
  endfacet
  facet normal 0 1 0
    outer loop
      vertex 25 25 -25
      vertex -25 25 25
      vertex 25 25 25
    endloop
  endfacet
  facet normal 0 0 1
    outer loop
      vertex 2.09057 -19.8904 25
      vertex -25 -25 25
      vertex 25 -25 25
    endloop
  endfacet
  facet normal 0 0 1
    outer loop
      vertex 2.09057 -19.8904 25
      vertex -2.09057 -19.8904 25
      vertex -25 -25 25
    endloop
  endfacet
  facet normal 0 0 1
    outer loop
      vertex -25 25 25
      vertex -25 -25 25
      vertex -19.563 -4.15823 25
    endloop
  endfacet
  facet normal 0 0 1
    outer loop
      vertex 10 -17.3205 25
      vertex 6.18034 -19.0211 25
      vertex 25 -25 25
    endloop
  endfacet
  facet normal 0 0 1
    outer loop
      vertex -25 25 25
      vertex -19.563 -4.15823 25
      vertex -20 0 25
    endloop
  endfacet
  facet normal 0 0 1
    outer loop
      vertex -25 25 25
      vertex -20 0 25
      vertex -19.563 4.15823 25
    endloop
  endfacet
  facet normal 0 0 1
    outer loop
      vertex -25 25 25
      vertex -19.563 4.15823 25
      vertex -18.2709 8.13473 25
    endloop
  endfacet
  facet normal 0 0 1
    outer loop
      vertex -25 25 25
      vertex -18.2709 8.13473 25
      vertex -16.1803 11.7557 25
    endloop
  endfacet
  facet normal 0 0 1
    outer loop
      vertex -10 17.3205 25
      vertex -25 25 25
      vertex -13.3826 14.8629 25
    endloop
  endfacet
  facet normal 0 0 1
    outer loop
      vertex -6.18034 19.0211 25
      vertex -25 25 25
      vertex -10 17.3205 25
    endloop
  endfacet
  facet normal 0 0 1
    outer loop
      vertex 2.09057 19.8904 25
      vertex 6.18034 19.0211 25
      vertex 25 25 25
    endloop
  endfacet
  facet normal 0 0 1
    outer loop
      vertex -2.09057 19.8904 25
      vertex -25 25 25
      vertex -6.18034 19.0211 25
    endloop
  endfacet
  facet normal 0 0 1
    outer loop
      vertex 20 0 25
      vertex 19.563 -4.15823 25
      vertex 25 -25 25
    endloop
  endfacet
  facet normal 0 0 1
    outer loop
      vertex 25 25 25
      vertex -25 25 25
      vertex -2.09057 19.8904 25
    endloop
  endfacet
  facet normal 0 0 1
    outer loop
      vertex 18.2709 -8.13473 25
      vertex 16.1803 -11.7557 25
      vertex 25 -25 25
    endloop
  endfacet
  facet normal 0 0 1
    outer loop
      vertex 25 25 25
      vertex 6.18034 19.0211 25
      vertex 10 17.3205 25
    endloop
  endfacet
  facet normal 0 0 1
    outer loop
      vertex 16.1803 -11.7557 25
      vertex 13.3826 -14.8629 25
      vertex 25 -25 25
    endloop
  endfacet
  facet normal 0 0 1
    outer loop
      vertex 25 25 25
      vertex 10 17.3205 25
      vertex 13.3826 14.8629 25
    endloop
  endfacet
  facet normal 0 0 1
    outer loop
      vertex 25 25 25
      vertex 13.3826 14.8629 25
      vertex 16.1803 11.7557 25
    endloop
  endfacet
  facet normal 0 0 1
    outer loop
      vertex 19.563 -4.15823 25
      vertex 18.2709 -8.13473 25
      vertex 25 -25 25
    endloop
  endfacet
  facet normal 0 0 1
    outer loop
      vertex 25 25 25
      vertex 16.1803 11.7557 25
      vertex 18.2709 8.13473 25
    endloop
  endfacet
  facet normal 0 0 1
    outer loop
      vertex 25 25 25
      vertex 19.563 4.15823 25
      vertex 25 -25 25
    endloop
  endfacet
  facet normal 0 0 1
    outer loop
      vertex 25 25 25
      vertex 18.2709 8.13473 25
      vertex 19.563 4.15823 25
    endloop
  endfacet
  facet normal 0 0 1
    outer loop
      vertex 19.563 4.15823 25
      vertex 20 0 25
      vertex 25 -25 25
    endloop
  endfacet
  facet normal 0 0 1
    outer loop
      vertex 6.18034 -19.0211 25
      vertex 2.09057 -19.8904 25
      vertex 25 -25 25
    endloop
  endfacet
  facet normal 0 0 1
    outer loop
      vertex -6.18034 -19.0211 25
      vertex -25 -25 25
      vertex -2.09057 -19.8904 25
    endloop
  endfacet
  facet normal 0 0 1
    outer loop
      vertex -10 -17.3205 25
      vertex -25 -25 25
      vertex -6.18034 -19.0211 25
    endloop
  endfacet
  facet normal 0 0 1
    outer loop
      vertex -13.3826 -14.8629 25
      vertex -25 -25 25
      vertex -10 -17.3205 25
    endloop
  endfacet
  facet normal 0 0 1
    outer loop
      vertex -16.1803 -11.7557 25
      vertex -25 -25 25
      vertex -13.3826 -14.8629 25
    endloop
  endfacet
  facet normal 0 0 1
    outer loop
      vertex -18.2709 -8.13473 25
      vertex -25 -25 25
      vertex -16.1803 -11.7557 25
    endloop
  endfacet
  facet normal 0 0 1
    outer loop
      vertex -19.563 -4.15823 25
      vertex -25 -25 25
      vertex -18.2709 -8.13473 25
    endloop
  endfacet
  facet normal 0 0 1
    outer loop
      vertex -16.1803 11.7557 25
      vertex -13.3826 14.8629 25
      vertex -25 25 25
    endloop
  endfacet
  facet normal 0 0 1
    outer loop
      vertex -2.09057 19.8904 25
      vertex 2.09057 19.8904 25
      vertex 25 25 25
    endloop
  endfacet
  facet normal 0 0 1
    outer loop
      vertex 13.3826 -14.8629 25
      vertex 10 -17.3205 25
      vertex 25 -25 25
    endloop
  endfacet
  facet normal 1 0 0
    outer loop
      vertex 25 -25 25
      vertex 25 -25 -25
      vertex 25 25 -25
    endloop
  endfacet
  facet normal 1 0 0
    outer loop
      vertex 25 25 25
      vertex 25 -25 25
      vertex 25 25 -25
    endloop
  endfacet
  facet normal 0.994522 -0.104528 0
    outer loop
      vertex -19.563 4.15823 -25
      vertex -19.563 4.15823 25
      vertex -20 0 25
    endloop
  endfacet
  facet normal 0.994522 -0.104528 0
    outer loop
      vertex -20 0 -25
      vertex -19.563 4.15823 -25
      vertex -20 0 25
    endloop
  endfacet
  facet normal 0.994522 0.104528 0
    outer loop
      vertex -20 0 25
      vertex -19.563 -4.15823 25
      vertex -19.563 -4.15823 -25
    endloop
  endfacet
  facet normal 0.994522 0.104528 0
    outer loop
      vertex -20 0 -25
      vertex -20 0 25
      vertex -19.563 -4.15823 -25
    endloop
  endfacet
  facet normal 0.951057 -0.309017 0
    outer loop
      vertex -18.2709 8.13473 -25
      vertex -18.2709 8.13473 25
      vertex -19.563 4.15823 25
    endloop
  endfacet
  facet normal 0.951057 -0.309017 0
    outer loop
      vertex -19.563 4.15823 -25
      vertex -18.2709 8.13473 -25
      vertex -19.563 4.15823 25
    endloop
  endfacet
  facet normal 0.866025 -0.5 0
    outer loop
      vertex -16.1803 11.7557 -25
      vertex -16.1803 11.7557 25
      vertex -18.2709 8.13473 25
    endloop
  endfacet
  facet normal 0.866025 -0.5 0
    outer loop
      vertex -18.2709 8.13473 -25
      vertex -16.1803 11.7557 -25
      vertex -18.2709 8.13473 25
    endloop
  endfacet
  facet normal 0.743145 -0.669131 0
    outer loop
      vertex -13.3826 14.8629 -25
      vertex -13.3826 14.8629 25
      vertex -16.1803 11.7557 25
    endloop
  endfacet
  facet normal 0.743145 -0.669131 0
    outer loop
      vertex -16.1803 11.7557 -25
      vertex -13.3826 14.8629 -25
      vertex -16.1803 11.7557 25
    endloop
  endfacet
  facet normal 0.587785 -0.809017 0
    outer loop
      vertex -10 17.3205 -25
      vertex -10 17.3205 25
      vertex -13.3826 14.8629 25
    endloop
  endfacet
  facet normal 0.587785 -0.809017 0
    outer loop
      vertex -13.3826 14.8629 -25
      vertex -10 17.3205 -25
      vertex -13.3826 14.8629 25
    endloop
  endfacet
  facet normal 0.406737 -0.913545 0
    outer loop
      vertex -6.18034 19.0211 -25
      vertex -6.18034 19.0211 25
      vertex -10 17.3205 25
    endloop
  endfacet
  facet normal 0.406737 -0.913545 0
    outer loop
      vertex -10 17.3205 -25
      vertex -6.18034 19.0211 -25
      vertex -10 17.3205 25
    endloop
  endfacet
  facet normal 0.207912 -0.978148 0
    outer loop
      vertex -2.09057 19.8904 -25
      vertex -2.09057 19.8904 25
      vertex -6.18034 19.0211 25
    endloop
  endfacet
  facet normal 0.207912 -0.978148 0
    outer loop
      vertex -6.18034 19.0211 -25
      vertex -2.09057 19.8904 -25
      vertex -6.18034 19.0211 25
    endloop
  endfacet
  facet normal 0 -1 0
    outer loop
      vertex 2.09057 19.8904 -25
      vertex 2.09057 19.8904 25
      vertex -2.09057 19.8904 25
    endloop
  endfacet
  facet normal 0 -1 0
    outer loop
      vertex -2.09057 19.8904 -25
      vertex 2.09057 19.8904 -25
      vertex -2.09057 19.8904 25
    endloop
  endfacet
  facet normal -0.207912 -0.978148 0
    outer loop
      vertex 6.18034 19.0211 -25
      vertex 6.18034 19.0211 25
      vertex 2.09057 19.8904 25
    endloop
  endfacet
  facet normal -0.207912 -0.978148 0
    outer loop
      vertex 2.09057 19.8904 -25
      vertex 6.18034 19.0211 -25
      vertex 2.09057 19.8904 25
    endloop
  endfacet
  facet normal -0.406737 -0.913545 0
    outer loop
      vertex 10 17.3205 -25
      vertex 10 17.3205 25
      vertex 6.18034 19.0211 25
    endloop
  endfacet
  facet normal -0.406737 -0.913545 0
    outer loop
      vertex 6.18034 19.0211 -25
      vertex 10 17.3205 -25
      vertex 6.18034 19.0211 25
    endloop
  endfacet
  facet normal -0.587785 -0.809017 0
    outer loop
      vertex 13.3826 14.8629 -25
      vertex 13.3826 14.8629 25
      vertex 10 17.3205 25
    endloop
  endfacet
  facet normal -0.587785 -0.809017 0
    outer loop
      vertex 10 17.3205 -25
      vertex 13.3826 14.8629 -25
      vertex 10 17.3205 25
    endloop
  endfacet
  facet normal -0.743145 -0.669131 0
    outer loop
      vertex 16.1803 11.7557 25
      vertex 13.3826 14.8629 25
      vertex 16.1803 11.7557 -25
    endloop
  endfacet
  facet normal -0.743145 -0.669131 0
    outer loop
      vertex 16.1803 11.7557 -25
      vertex 13.3826 14.8629 25
      vertex 13.3826 14.8629 -25
    endloop
  endfacet
  facet normal -0.866025 -0.5 0
    outer loop
      vertex 18.2709 8.13473 25
      vertex 16.1803 11.7557 25
      vertex 18.2709 8.13473 -25
    endloop
  endfacet
  facet normal -0.866025 -0.5 0
    outer loop
      vertex 18.2709 8.13473 -25
      vertex 16.1803 11.7557 25
      vertex 16.1803 11.7557 -25
    endloop
  endfacet
  facet normal -0.951057 -0.309017 0
    outer loop
      vertex 19.563 4.15823 25
      vertex 18.2709 8.13473 25
      vertex 19.563 4.15823 -25
    endloop
  endfacet
  facet normal -0.951057 -0.309017 0
    outer loop
      vertex 19.563 4.15823 -25
      vertex 18.2709 8.13473 25
      vertex 18.2709 8.13473 -25
    endloop
  endfacet
  facet normal -0.994522 -0.104528 0
    outer loop
      vertex 20 0 25
      vertex 19.563 4.15823 25
      vertex 20 0 -25
    endloop
  endfacet
  facet normal -0.994522 -0.104528 0
    outer loop
      vertex 20 0 -25
      vertex 19.563 4.15823 25
      vertex 19.563 4.15823 -25
    endloop
  endfacet
  facet normal -0.994522 0.104528 0
    outer loop
      vertex 20 0 25
      vertex 20 0 -25
      vertex 19.563 -4.15823 25
    endloop
  endfacet
  facet normal -0.994522 0.104528 0
    outer loop
      vertex 19.563 -4.15823 25
      vertex 20 0 -25
      vertex 19.563 -4.15823 -25
    endloop
  endfacet
  facet normal -0.951057 0.309017 0
    outer loop
      vertex 19.563 -4.15823 25
      vertex 19.563 -4.15823 -25
      vertex 18.2709 -8.13473 25
    endloop
  endfacet
  facet normal -0.951057 0.309017 0
    outer loop
      vertex 18.2709 -8.13473 25
      vertex 19.563 -4.15823 -25
      vertex 18.2709 -8.13473 -25
    endloop
  endfacet
  facet normal -0.866025 0.5 0
    outer loop
      vertex 18.2709 -8.13473 25
      vertex 18.2709 -8.13473 -25
      vertex 16.1803 -11.7557 25
    endloop
  endfacet
  facet normal -0.866025 0.5 0
    outer loop
      vertex 16.1803 -11.7557 25
      vertex 18.2709 -8.13473 -25
      vertex 16.1803 -11.7557 -25
    endloop
  endfacet
  facet normal -0.743145 0.669131 0
    outer loop
      vertex 16.1803 -11.7557 25
      vertex 16.1803 -11.7557 -25
      vertex 13.3826 -14.8629 25
    endloop
  endfacet
  facet normal -0.743145 0.669131 0
    outer loop
      vertex 13.3826 -14.8629 25
      vertex 16.1803 -11.7557 -25
      vertex 13.3826 -14.8629 -25
    endloop
  endfacet
  facet normal -0.587785 0.809017 0
    outer loop
      vertex 13.3826 -14.8629 25
      vertex 13.3826 -14.8629 -25
      vertex 10 -17.3205 25
    endloop
  endfacet
  facet normal -0.587785 0.809017 0
    outer loop
      vertex 10 -17.3205 25
      vertex 13.3826 -14.8629 -25
      vertex 10 -17.3205 -25
    endloop
  endfacet
  facet normal -0.406737 0.913545 0
    outer loop
      vertex 10 -17.3205 25
      vertex 10 -17.3205 -25
      vertex 6.18034 -19.0211 25
    endloop
  endfacet
  facet normal -0.406737 0.913545 0
    outer loop
      vertex 6.18034 -19.0211 25
      vertex 10 -17.3205 -25
      vertex 6.18034 -19.0211 -25
    endloop
  endfacet
  facet normal -0.207912 0.978148 0
    outer loop
      vertex 6.18034 -19.0211 25
      vertex 6.18034 -19.0211 -25
      vertex 2.09057 -19.8904 25
    endloop
  endfacet
  facet normal -0.207912 0.978148 0
    outer loop
      vertex 2.09057 -19.8904 25
      vertex 6.18034 -19.0211 -25
      vertex 2.09057 -19.8904 -25
    endloop
  endfacet
  facet normal 0 1 0
    outer loop
      vertex 2.09057 -19.8904 25
      vertex 2.09057 -19.8904 -25
      vertex -2.09057 -19.8904 25
    endloop
  endfacet
  facet normal 0 1 0
    outer loop
      vertex -2.09057 -19.8904 25
      vertex 2.09057 -19.8904 -25
      vertex -2.09057 -19.8904 -25
    endloop
  endfacet
  facet normal 0.207912 0.978148 0
    outer loop
      vertex -2.09057 -19.8904 25
      vertex -2.09057 -19.8904 -25
      vertex -6.18034 -19.0211 25
    endloop
  endfacet
  facet normal 0.207912 0.978148 0
    outer loop
      vertex -6.18034 -19.0211 25
      vertex -2.09057 -19.8904 -25
      vertex -6.18034 -19.0211 -25
    endloop
  endfacet
  facet normal 0.406737 0.913545 0
    outer loop
      vertex -6.18034 -19.0211 25
      vertex -6.18034 -19.0211 -25
      vertex -10 -17.3205 25
    endloop
  endfacet
  facet normal 0.406737 0.913545 0
    outer loop
      vertex -10 -17.3205 25
      vertex -6.18034 -19.0211 -25
      vertex -10 -17.3205 -25
    endloop
  endfacet
  facet normal 0.587785 0.809017 0
    outer loop
      vertex -10 -17.3205 25
      vertex -10 -17.3205 -25
      vertex -13.3826 -14.8629 25
    endloop
  endfacet
  facet normal 0.587785 0.809017 0
    outer loop
      vertex -13.3826 -14.8629 25
      vertex -10 -17.3205 -25
      vertex -13.3826 -14.8629 -25
    endloop
  endfacet
  facet normal 0.743145 0.669131 0
    outer loop
      vertex -16.1803 -11.7557 25
      vertex -13.3826 -14.8629 25
      vertex -13.3826 -14.8629 -25
    endloop
  endfacet
  facet normal 0.743145 0.669131 0
    outer loop
      vertex -16.1803 -11.7557 -25
      vertex -16.1803 -11.7557 25
      vertex -13.3826 -14.8629 -25
    endloop
  endfacet
  facet normal 0.866025 0.5 0
    outer loop
      vertex -18.2709 -8.13473 25
      vertex -16.1803 -11.7557 25
      vertex -16.1803 -11.7557 -25
    endloop
  endfacet
  facet normal 0.866025 0.5 0
    outer loop
      vertex -18.2709 -8.13473 -25
      vertex -18.2709 -8.13473 25
      vertex -16.1803 -11.7557 -25
    endloop
  endfacet
  facet normal 0.951057 0.309017 0
    outer loop
      vertex -19.563 -4.15823 25
      vertex -18.2709 -8.13473 25
      vertex -18.2709 -8.13473 -25
    endloop
  endfacet
  facet normal 0.951057 0.309017 0
    outer loop
      vertex -19.563 -4.15823 -25
      vertex -19.563 -4.15823 25
      vertex -18.2709 -8.13473 -25
    endloop
  endfacet
endsolid OpenSCAD_Model
