solid OpenSCAD_Model
  facet normal 0 0 -1
    outer loop
      vertex -4.6194 5.31342 0
      vertex -3.53553 6.93553 0
      vertex -5 3.4 0
    endloop
  endfacet
  facet normal 0 0 -1
    outer loop
      vertex -5 3.4 0
      vertex -3.53553 6.93553 0
      vertex -1.91342 8.0194 0
    endloop
  endfacet
  facet normal 0 0 -1
    outer loop
      vertex -5 3.4 0
      vertex -1.91342 8.0194 0
      vertex 0 8.4 0
    endloop
  endfacet
  facet normal 0 0 -1
    outer loop
      vertex -5 3.4 0
      vertex 0 8.4 0
      vertex 1.91342 8.0194 0
    endloop
  endfacet
  facet normal 0 0 -1
    outer loop
      vertex -5 3.4 0
      vertex 1.91342 8.0194 0
      vertex 3.53553 6.93553 0
    endloop
  endfacet
  facet normal 0 0 -1
    outer loop
      vertex -5 3.4 0
      vertex 3.53553 6.93553 0
      vertex 4.6194 5.31342 0
    endloop
  endfacet
  facet normal 0 0 -1
    outer loop
      vertex -5 3.4 0
      vertex 4.6194 5.31342 0
      vertex 5 3.4 0
    endloop
  endfacet
  facet normal 0 0 -1
    outer loop
      vertex -5 3.4 0
      vertex 5 3.4 0
      vertex 4.6194 1.48658 0
    endloop
  endfacet
  facet normal 0 0 -1
    outer loop
      vertex -5 3.4 0
      vertex 4.6194 1.48658 0
      vertex 3.53553 -0.135534 0
    endloop
  endfacet
  facet normal 0 0 -1
    outer loop
      vertex -5 3.4 0
      vertex 3.53553 -0.135534 0
      vertex 1.91342 -1.2194 0
    endloop
  endfacet
  facet normal 0 0 -1
    outer loop
      vertex -5 3.4 0
      vertex 1.91342 -1.2194 0
      vertex 0 -1.6 0
    endloop
  endfacet
  facet normal 0 0 -1
    outer loop
      vertex -5 3.4 0
      vertex 0 -1.6 0
      vertex -1.91342 -1.2194 0
    endloop
  endfacet
  facet normal 0 0 -1
    outer loop
      vertex -5 3.4 0
      vertex -1.91342 -1.2194 0
      vertex -3.53553 -0.135534 0
    endloop
  endfacet
  facet normal 0 0 -1
    outer loop
      vertex -5 3.4 0
      vertex -3.53553 -0.135534 0
      vertex -4.6194 1.48658 0
    endloop
  endfacet
  facet normal 0.980785 0.19509 0
    outer loop
      vertex 4.6194 5.31342 0
      vertex 4.6194 5.31342 16
      vertex 5 3.4 16
    endloop
  endfacet
  facet normal 0.980785 0.19509 0
    outer loop
      vertex 5 3.4 0
      vertex 4.6194 5.31342 0
      vertex 5 3.4 16
    endloop
  endfacet
  facet normal 0.83147 0.55557 0
    outer loop
      vertex 3.53553 6.93553 0
      vertex 3.53553 6.93553 16
      vertex 4.6194 5.31342 16
    endloop
  endfacet
  facet normal 0.83147 0.55557 0
    outer loop
      vertex 4.6194 5.31342 0
      vertex 3.53553 6.93553 0
      vertex 4.6194 5.31342 16
    endloop
  endfacet
  facet normal -0.980785 0.19509 0
    outer loop
      vertex -5 3.4 16
      vertex -4.6194 5.31342 16
      vertex -5 3.4 0
    endloop
  endfacet
  facet normal -0.980785 0.19509 0
    outer loop
      vertex -5 3.4 0
      vertex -4.6194 5.31342 16
      vertex -4.6194 5.31342 0
    endloop
  endfacet
  facet normal -0.980785 -0.19509 0
    outer loop
      vertex -4.6194 1.48658 0
      vertex -4.6194 1.48658 16
      vertex -5 3.4 0
    endloop
  endfacet
  facet normal -0.980785 -0.19509 0
    outer loop
      vertex -5 3.4 0
      vertex -4.6194 1.48658 16
      vertex -5 3.4 16
    endloop
  endfacet
  facet normal -0.83147 -0.55557 0
    outer loop
      vertex -3.53553 -0.135534 0
      vertex -3.53553 -0.135534 16
      vertex -4.6194 1.48658 0
    endloop
  endfacet
  facet normal -0.83147 -0.55557 0
    outer loop
      vertex -4.6194 1.48658 0
      vertex -3.53553 -0.135534 16
      vertex -4.6194 1.48658 16
    endloop
  endfacet
  facet normal -0.55557 -0.83147 0
    outer loop
      vertex -3.53553 -0.135534 0
      vertex -1.91342 -1.2194 0
      vertex -1.91342 -1.2194 16
    endloop
  endfacet
  facet normal -0.55557 -0.83147 0
    outer loop
      vertex -3.53553 -0.135534 16
      vertex -3.53553 -0.135534 0
      vertex -1.91342 -1.2194 16
    endloop
  endfacet
  facet normal -0.19509 -0.980785 0
    outer loop
      vertex -1.91342 -1.2194 0
      vertex 0 -1.6 0
      vertex 0 -1.6 16
    endloop
  endfacet
  facet normal -0.19509 -0.980785 0
    outer loop
      vertex -1.91342 -1.2194 16
      vertex -1.91342 -1.2194 0
      vertex 0 -1.6 16
    endloop
  endfacet
  facet normal 0.19509 -0.980785 0
    outer loop
      vertex 0 -1.6 0
      vertex 1.91342 -1.2194 0
      vertex 1.91342 -1.2194 16
    endloop
  endfacet
  facet normal 0.19509 -0.980785 0
    outer loop
      vertex 0 -1.6 16
      vertex 0 -1.6 0
      vertex 1.91342 -1.2194 16
    endloop
  endfacet
  facet normal 0.55557 -0.83147 0
    outer loop
      vertex 1.91342 -1.2194 0
      vertex 3.53553 -0.135534 0
      vertex 3.53553 -0.135534 16
    endloop
  endfacet
  facet normal 0.55557 -0.83147 0
    outer loop
      vertex 1.91342 -1.2194 16
      vertex 1.91342 -1.2194 0
      vertex 3.53553 -0.135534 16
    endloop
  endfacet
  facet normal 0.83147 -0.55557 0
    outer loop
      vertex 3.53553 -0.135534 0
      vertex 4.6194 1.48658 0
      vertex 4.6194 1.48658 16
    endloop
  endfacet
  facet normal 0.83147 -0.55557 0
    outer loop
      vertex 3.53553 -0.135534 16
      vertex 3.53553 -0.135534 0
      vertex 4.6194 1.48658 16
    endloop
  endfacet
  facet normal 0.980785 -0.19509 0
    outer loop
      vertex 4.6194 1.48658 0
      vertex 5 3.4 0
      vertex 5 3.4 16
    endloop
  endfacet
  facet normal 0.980785 -0.19509 0
    outer loop
      vertex 4.6194 1.48658 16
      vertex 4.6194 1.48658 0
      vertex 5 3.4 16
    endloop
  endfacet
  facet normal 0.55557 0.83147 0
    outer loop
      vertex 1.91342 8.0194 16
      vertex 3.53553 6.93553 16
      vertex 1.91342 8.0194 0
    endloop
  endfacet
  facet normal 0.55557 0.83147 0
    outer loop
      vertex 1.91342 8.0194 0
      vertex 3.53553 6.93553 16
      vertex 3.53553 6.93553 0
    endloop
  endfacet
  facet normal 0.19509 0.980785 0
    outer loop
      vertex 0 8.4 16
      vertex 1.91342 8.0194 16
      vertex 0 8.4 0
    endloop
  endfacet
  facet normal 0.19509 0.980785 0
    outer loop
      vertex 0 8.4 0
      vertex 1.91342 8.0194 16
      vertex 1.91342 8.0194 0
    endloop
  endfacet
  facet normal -0.19509 0.980785 0
    outer loop
      vertex -1.91342 8.0194 16
      vertex 0 8.4 16
      vertex -1.91342 8.0194 0
    endloop
  endfacet
  facet normal -0.19509 0.980785 0
    outer loop
      vertex -1.91342 8.0194 0
      vertex 0 8.4 16
      vertex 0 8.4 0
    endloop
  endfacet
  facet normal -0.55557 0.83147 0
    outer loop
      vertex -3.53553 6.93553 16
      vertex -1.91342 8.0194 16
      vertex -3.53553 6.93553 0
    endloop
  endfacet
  facet normal -0.55557 0.83147 0
    outer loop
      vertex -3.53553 6.93553 0
      vertex -1.91342 8.0194 16
      vertex -1.91342 8.0194 0
    endloop
  endfacet
  facet normal -0.83147 0.55557 0
    outer loop
      vertex -4.6194 5.31342 16
      vertex -3.53553 6.93553 16
      vertex -4.6194 5.31342 0
    endloop
  endfacet
  facet normal -0.83147 0.55557 0
    outer loop
      vertex -4.6194 5.31342 0
      vertex -3.53553 6.93553 16
      vertex -3.53553 6.93553 0
    endloop
  endfacet
  facet normal 0 0 1
    outer loop
      vertex -5 3.4 16
      vertex -4.6194 1.48658 16
      vertex -3.53553 -0.135534 16
    endloop
  endfacet
  facet normal 0 0 1
    outer loop
      vertex 0 -1.6 16
      vertex -5 3.4 16
      vertex -1.91342 -1.2194 16
    endloop
  endfacet
  facet normal 0 0 1
    outer loop
      vertex -1.91342 -1.2194 16
      vertex -5 3.4 16
      vertex -3.53553 -0.135534 16
    endloop
  endfacet
  facet normal 0 0 1
    outer loop
      vertex 1.91342 -1.2194 16
      vertex -5 3.4 16
      vertex 0 -1.6 16
    endloop
  endfacet
  facet normal 0 0 1
    outer loop
      vertex 3.53553 -0.135534 16
      vertex -5 3.4 16
      vertex 1.91342 -1.2194 16
    endloop
  endfacet
  facet normal 0 0 1
    outer loop
      vertex 4.6194 1.48658 16
      vertex -5 3.4 16
      vertex 3.53553 -0.135534 16
    endloop
  endfacet
  facet normal 0 0 1
    outer loop
      vertex 5 3.4 16
      vertex -5 3.4 16
      vertex 4.6194 1.48658 16
    endloop
  endfacet
  facet normal 0 0 1
    outer loop
      vertex 4.6194 5.31342 16
      vertex -5 3.4 16
      vertex 5 3.4 16
    endloop
  endfacet
  facet normal 0 0 1
    outer loop
      vertex 3.53553 6.93553 16
      vertex -5 3.4 16
      vertex 4.6194 5.31342 16
    endloop
  endfacet
  facet normal 0 0 1
    outer loop
      vertex 1.91342 8.0194 16
      vertex -5 3.4 16
      vertex 3.53553 6.93553 16
    endloop
  endfacet
  facet normal 0 0 1
    outer loop
      vertex 0 8.4 16
      vertex -5 3.4 16
      vertex 1.91342 8.0194 16
    endloop
  endfacet
  facet normal 0 0 1
    outer loop
      vertex -1.91342 8.0194 16
      vertex -5 3.4 16
      vertex 0 8.4 16
    endloop
  endfacet
  facet normal 0 0 1
    outer loop
      vertex -3.53553 6.93553 16
      vertex -5 3.4 16
      vertex -1.91342 8.0194 16
    endloop
  endfacet
  facet normal 0 0 1
    outer loop
      vertex -4.6194 5.31342 16
      vertex -5 3.4 16
      vertex -3.53553 6.93553 16
    endloop
  endfacet
endsolid OpenSCAD_Model
